<?xml version="1.0" encoding="utf-8"?>
<!-- Generator: Adobe Illustrator 26.0.2, SVG Export Plug-In . SVG Version: 6.00 Build 0)  -->
<svg version="1.1" id="Layer_1" xmlns="http://www.w3.org/2000/svg" xmlns:xlink="http://www.w3.org/1999/xlink" x="0px" y="0px"
	 viewBox="0 0 1280 1280" style="enable-background:new 0 0 1280 1280;" xml:space="preserve">
<style type="text/css">
	.st0{fill-rule:evenodd;clip-rule:evenodd;fill:#F2D200;}
	.st1{fill-rule:evenodd;clip-rule:evenodd;fill:#FF0000;}
	.st2{fill-rule:evenodd;clip-rule:evenodd;}
</style>
<rect class="st0" width="1280" height="1280"/>
<g>
	<path class="st1" d="M477.6,480.58c48.87,0,88.49,39.62,88.49,88.49v64.52c0,13.17-10.74,23.91-23.91,23.91h-61.61
		c-0.98,0.03-1.97,0.05-2.96,0.05c-48.87,0-88.49-39.62-88.49-88.49C389.11,520.2,428.72,480.58,477.6,480.58L477.6,480.58z
		 M477.6,518.38c27.99,0,50.69,22.69,50.69,50.69c0,27.99-22.69,50.69-50.69,50.69c-27.99,0-50.69-22.69-50.69-50.69
		C426.91,541.08,449.6,518.38,477.6,518.38L477.6,518.38z"/>
	<path class="st2" d="M194.3,480.58c19.34,0,36.78,8.13,49.1,21.16c12.32-13.03,29.76-21.16,49.1-21.16
		c37.31,0,67.56,30.25,67.56,67.56v91.77c0,9.73-7.93,17.66-17.66,17.66h-1.6c-9.73,0-17.66-7.93-17.66-17.66v-91.77h0
		c0-16.92-13.72-30.64-30.64-30.64c-16.92,0-30.64,13.72-30.64,30.64v60.23v31.54c0,9.73-7.93,17.66-17.66,17.66h-1.6
		c-9.73,0-17.66-7.93-17.66-17.66v-91.77c0-16.92-13.72-30.64-30.64-30.64c-16.92,0-30.64,13.72-30.64,30.64v60.23v31.54
		c0,9.73-7.93,17.66-17.66,17.66h-1.6c-9.73,0-17.66-7.93-17.66-17.66v-91.77C126.74,510.83,156.99,480.58,194.3,480.58
		L194.3,480.58z M1120.51,426.78c9.24,0,17.61,3.75,23.67,9.81l0.01,0.01c6.06,6.06,9.81,14.43,9.81,23.67s-3.75,17.61-9.81,23.67
		l-0.01,0.01c-6.06,6.06-14.43,9.81-23.67,9.81s-17.61-3.75-23.67-9.81l-0.01-0.01c-6.06-6.06-9.81-14.43-9.81-23.67
		s3.75-17.61,9.81-23.67l0.01-0.01C1102.9,430.53,1111.27,426.78,1120.51,426.78L1120.51,426.78z M1106.75,475.57v-30.6h13.01
		c3.27,0,5.65,0.28,7.13,0.83c1.49,0.55,2.67,1.52,3.56,2.93c0.89,1.41,1.34,3.01,1.34,4.82c0,2.3-0.67,4.19-2.02,5.69
		c-1.35,1.49-3.35,2.44-6.03,2.83c1.33,0.78,2.43,1.63,3.29,2.56c0.87,0.93,2.04,2.59,3.5,4.97l3.73,5.97h-7.39l-4.43-6.68
		c-1.59-2.37-2.68-3.87-3.27-4.49c-0.58-0.61-1.2-1.04-1.86-1.27c-0.66-0.23-1.7-0.34-3.13-0.34h-1.25v12.78H1106.75L1106.75,475.57
		z M1112.94,457.93h4.57c2.96,0,4.81-0.13,5.55-0.38c0.73-0.25,1.32-0.68,1.73-1.3c0.42-0.61,0.63-1.38,0.63-2.3
		c0-1.03-0.28-1.86-0.83-2.5c-0.55-0.63-1.32-1.03-2.32-1.2c-0.5-0.07-2.01-0.11-4.51-0.11h-4.82V457.93L1112.94,457.93z
		 M1138.82,441.97c-4.68-4.68-11.16-7.57-18.31-7.57c-7.15,0-13.63,2.89-18.31,7.57c-4.68,4.68-7.57,11.16-7.57,18.31
		c0,7.15,2.89,13.63,7.57,18.31c4.68,4.68,11.16,7.57,18.31,7.57c7.15,0,13.63-2.89,18.31-7.57c4.68-4.68,7.57-11.16,7.57-18.31
		C1146.39,453.12,1143.49,446.65,1138.82,441.97L1138.82,441.97z M917.46,480.58c19.34,0,36.78,8.13,49.1,21.16
		c12.32-13.03,29.76-21.16,49.1-21.16c37.31,0,67.56,30.25,67.56,67.56v91.77c0,9.73-7.93,17.66-17.66,17.66h-1.6
		c-9.73,0-17.66-7.93-17.66-17.66v-91.77h0c0-16.92-13.72-30.64-30.64-30.64c-16.92,0-30.64,13.72-30.64,30.64v60.23v31.54
		c0,9.73-7.93,17.66-17.66,17.66h-1.6c-9.73,0-17.66-7.93-17.66-17.66v-91.77c0-16.92-13.72-30.64-30.64-30.64
		c-16.92,0-30.64,13.72-30.64,30.64v60.23v31.54c0,9.73-7.93,17.66-17.66,17.66h-1.6c-9.73,0-17.66-7.93-17.66-17.66v-91.77
		C849.91,510.83,880.15,480.58,917.46,480.58L917.46,480.58z M791.96,480.58h1.6c9.73,0,17.66,7.93,17.66,17.66V639.9
		c0,9.73-7.93,17.66-17.66,17.66h-1.6c-9.73,0-17.66-7.93-17.66-17.66V498.24C774.3,488.51,782.24,480.58,791.96,480.58
		L791.96,480.58z M792.76,416.24c12.2,0,22.09,9.89,22.09,22.09s-9.89,22.09-22.09,22.09c-12.2,0-22.09-9.89-22.09-22.09
		S780.56,416.24,792.76,416.24L792.76,416.24z M592.95,485.45l1.24-1.01c7.55-6.13,18.72-4.95,24.84,2.6l42.68,52.67l42.68-52.67
		c6.12-7.55,17.29-8.73,24.84-2.6l1.24,1.01c7.55,6.13,8.73,17.28,2.61,24.84l-47.6,58.75l47.61,58.75
		c6.12,7.55,4.95,18.72-2.6,24.84l-1.24,1.01c-7.55,6.12-18.72,4.95-24.84-2.6l-42.68-52.67l-42.68,52.67
		c-6.12,7.55-17.29,8.72-24.84,2.6l-1.24-1.01c-7.55-6.12-8.72-17.29-2.6-24.84l47.61-58.75l-47.6-58.75
		C584.22,502.74,585.4,491.58,592.95,485.45L592.95,485.45z"/>
</g>
<g>
	<path d="M240.28,796.46V748.2h-17.23v-9.83h46.15v9.83h-17.19v48.25H240.28z"/>
	<path d="M282.87,796.46h-11.13v-42.07h10.34v5.98c1.77-2.83,3.36-4.69,4.77-5.59c1.41-0.9,3.02-1.35,4.81-1.35
		c2.54,0,4.98,0.7,7.33,2.1l-3.45,9.71c-1.88-1.21-3.62-1.82-5.23-1.82c-1.56,0-2.88,0.43-3.96,1.29s-1.93,2.41-2.55,4.66
		c-0.62,2.25-0.93,6.95-0.93,14.1V796.46z"/>
	<path d="M312.11,767.22L302,765.4c1.13-4.07,3.09-7.08,5.86-9.03c2.77-1.95,6.89-2.93,12.36-2.93c4.96,0,8.66,0.59,11.09,1.76
		c2.43,1.17,4.14,2.67,5.13,4.48c0.99,1.81,1.49,5.13,1.49,9.96l-0.12,12.99c0,3.7,0.18,6.42,0.54,8.18c0.36,1.76,1.02,3.64,2,5.65
		h-11.01c-0.29-0.74-0.65-1.83-1.07-3.29c-0.18-0.66-0.32-1.1-0.4-1.31c-1.9,1.85-3.94,3.24-6.1,4.16
		c-2.17,0.92-4.48,1.39-6.93,1.39c-4.33,0-7.75-1.17-10.24-3.53c-2.5-2.35-3.74-5.32-3.74-8.91c0-2.38,0.57-4.5,1.7-6.36
		c1.13-1.86,2.73-3.29,4.77-4.28s5-1.86,8.85-2.59c5.2-0.98,8.81-1.89,10.82-2.73v-1.11c0-2.14-0.53-3.67-1.58-4.58
		c-1.06-0.91-3.05-1.37-5.98-1.37c-1.98,0-3.53,0.39-4.64,1.17C313.69,763.9,312.79,765.26,312.11,767.22z M327,776.25
		c-1.43,0.48-3.68,1.04-6.77,1.7s-5.11,1.31-6.06,1.94c-1.45,1.03-2.18,2.34-2.18,3.92c0,1.56,0.58,2.91,1.74,4.04
		s2.64,1.7,4.44,1.7c2.01,0,3.92-0.66,5.74-1.98c1.35-1,2.23-2.23,2.65-3.68c0.29-0.95,0.44-2.76,0.44-5.43V776.25z"/>
	<path d="M387.18,796.46h-11.13v-21.47c0-4.54-0.24-7.48-0.71-8.81s-1.25-2.37-2.32-3.11c-1.07-0.74-2.36-1.11-3.86-1.11
		c-1.93,0-3.66,0.53-5.19,1.58c-1.53,1.06-2.58,2.46-3.15,4.2c-0.57,1.74-0.85,4.97-0.85,9.67v19.06h-11.13v-42.07h10.34v6.18
		c3.67-4.75,8.29-7.13,13.87-7.13c2.46,0,4.7,0.44,6.74,1.33c2.03,0.89,3.57,2.01,4.62,3.39c1.04,1.37,1.77,2.93,2.18,4.67
		s0.61,4.24,0.61,7.49V796.46z"/>
	<path d="M394.55,784.45l11.17-1.7c0.48,2.17,1.44,3.81,2.89,4.93c1.45,1.12,3.49,1.68,6.1,1.68c2.88,0,5.04-0.53,6.5-1.58
		c0.98-0.74,1.47-1.73,1.47-2.97c0-0.84-0.26-1.54-0.79-2.1c-0.55-0.53-1.8-1.02-3.72-1.47c-8.98-1.98-14.67-3.79-17.08-5.43
		c-3.33-2.27-4.99-5.43-4.99-9.47c0-3.64,1.44-6.71,4.32-9.19s7.34-3.72,13.39-3.72c5.76,0,10.04,0.94,12.84,2.81
		s4.73,4.65,5.78,8.32l-10.5,1.94c-0.45-1.64-1.3-2.89-2.56-3.76c-1.25-0.87-3.04-1.31-5.37-1.31c-2.93,0-5.03,0.41-6.3,1.23
		c-0.85,0.58-1.27,1.33-1.27,2.26c0,0.79,0.37,1.47,1.11,2.02c1,0.74,4.47,1.78,10.4,3.13c5.93,1.35,10.07,3,12.42,4.95
		c2.32,1.98,3.49,4.74,3.49,8.28c0,3.86-1.61,7.17-4.83,9.94s-7.99,4.16-14.3,4.16c-5.73,0-10.27-1.16-13.61-3.49
		S395.58,788.44,394.55,784.45z"/>
	<path d="M443.28,754.38h10.38v6.18c1.35-2.11,3.17-3.83,5.47-5.15s4.85-1.98,7.65-1.98c4.89,0,9.03,1.92,12.44,5.75
		c3.41,3.83,5.11,9.17,5.11,16c0,7.03-1.72,12.49-5.15,16.38s-7.59,5.84-12.48,5.84c-2.33,0-4.43-0.46-6.32-1.39
		c-1.89-0.92-3.88-2.51-5.96-4.75v21.19h-11.13V754.38z M454.29,774.71c0,4.73,0.94,8.22,2.81,10.48c1.88,2.26,4.16,3.39,6.85,3.39
		c2.59,0,4.74-1.04,6.46-3.11c1.72-2.07,2.58-5.47,2.58-10.2c0-4.41-0.89-7.69-2.65-9.83c-1.77-2.14-3.96-3.21-6.58-3.21
		c-2.72,0-4.98,1.05-6.78,3.15C455.19,767.48,454.29,770.58,454.29,774.71z"/>
	<path d="M490.58,774.82c0-3.7,0.91-7.28,2.73-10.74s4.4-6.1,7.75-7.92c3.34-1.82,7.07-2.73,11.19-2.73c6.37,0,11.58,2.07,15.65,6.2
		c4.07,4.13,6.1,9.36,6.1,15.67c0,6.37-2.05,11.64-6.16,15.83c-4.11,4.19-9.28,6.28-15.51,6.28c-3.86,0-7.53-0.87-11.03-2.62
		c-3.5-1.74-6.16-4.3-7.98-7.67C491.49,783.76,490.58,779.66,490.58,774.82z M501.99,775.42c0,4.17,0.99,7.37,2.97,9.59
		c1.98,2.22,4.42,3.33,7.33,3.33c2.91,0,5.34-1.11,7.31-3.33c1.97-2.22,2.95-5.44,2.95-9.67c0-4.12-0.98-7.29-2.95-9.51
		c-1.97-2.22-4.4-3.33-7.31-3.33c-2.91,0-5.35,1.11-7.33,3.33C502.98,768.05,501.99,771.25,501.99,775.42z"/>
	<path d="M553.38,796.46h-11.13v-42.07h10.34v5.98c1.77-2.83,3.36-4.69,4.77-5.59c1.41-0.9,3.02-1.35,4.81-1.35
		c2.54,0,4.98,0.7,7.33,2.1l-3.45,9.71c-1.88-1.21-3.62-1.82-5.23-1.82c-1.56,0-2.88,0.43-3.96,1.29s-1.93,2.41-2.55,4.66
		c-0.62,2.25-0.93,6.95-0.93,14.1V796.46z"/>
	<path d="M593.59,754.38v8.87h-7.61v16.96c0,3.43,0.07,5.43,0.22,6c0.14,0.57,0.48,1.04,0.99,1.41c0.52,0.37,1.14,0.55,1.88,0.55
		c1.03,0,2.52-0.36,4.48-1.07l0.95,8.64c-2.59,1.11-5.52,1.66-8.79,1.66c-2.01,0-3.82-0.34-5.43-1.01s-2.79-1.54-3.55-2.61
		c-0.75-1.07-1.27-2.52-1.56-4.34c-0.24-1.29-0.36-3.91-0.36-7.84v-18.34h-5.11v-8.87h5.11v-8.36l11.17-6.5v14.86H593.59z"/>
	<path d="M609.63,767.22l-10.1-1.82c1.13-4.07,3.09-7.08,5.86-9.03c2.77-1.95,6.89-2.93,12.36-2.93c4.96,0,8.66,0.59,11.09,1.76
		c2.43,1.17,4.14,2.67,5.13,4.48c0.99,1.81,1.49,5.13,1.49,9.96l-0.12,12.99c0,3.7,0.18,6.42,0.54,8.18c0.36,1.76,1.02,3.64,2,5.65
		h-11.01c-0.29-0.74-0.65-1.83-1.07-3.29c-0.18-0.66-0.32-1.1-0.4-1.31c-1.9,1.85-3.94,3.24-6.1,4.16
		c-2.17,0.92-4.48,1.39-6.93,1.39c-4.33,0-7.75-1.17-10.24-3.53c-2.5-2.35-3.74-5.32-3.74-8.91c0-2.38,0.57-4.5,1.7-6.36
		c1.13-1.86,2.73-3.29,4.77-4.28s5-1.86,8.85-2.59c5.2-0.98,8.81-1.89,10.82-2.73v-1.11c0-2.14-0.53-3.67-1.58-4.58
		c-1.06-0.91-3.05-1.37-5.98-1.37c-1.98,0-3.53,0.39-4.64,1.17C611.22,763.9,610.32,765.26,609.63,767.22z M624.53,776.25
		c-1.43,0.48-3.68,1.04-6.77,1.7s-5.11,1.31-6.06,1.94c-1.45,1.03-2.18,2.34-2.18,3.92c0,1.56,0.58,2.91,1.74,4.04
		s2.64,1.7,4.44,1.7c2.01,0,3.92-0.66,5.74-1.98c1.35-1,2.23-2.23,2.65-3.68c0.29-0.95,0.44-2.76,0.44-5.43V776.25z"/>
	<path d="M642.51,784.45l11.17-1.7c0.48,2.17,1.44,3.81,2.89,4.93c1.45,1.12,3.49,1.68,6.1,1.68c2.88,0,5.04-0.53,6.5-1.58
		c0.98-0.74,1.47-1.73,1.47-2.97c0-0.84-0.26-1.54-0.79-2.1c-0.55-0.53-1.8-1.02-3.72-1.47c-8.98-1.98-14.67-3.79-17.08-5.43
		c-3.33-2.27-4.99-5.43-4.99-9.47c0-3.64,1.44-6.71,4.32-9.19s7.34-3.72,13.39-3.72c5.76,0,10.04,0.94,12.84,2.81
		s4.73,4.65,5.78,8.32l-10.5,1.94c-0.45-1.64-1.3-2.89-2.56-3.76c-1.25-0.87-3.04-1.31-5.37-1.31c-2.93,0-5.03,0.41-6.3,1.23
		c-0.85,0.58-1.27,1.33-1.27,2.26c0,0.79,0.37,1.47,1.11,2.02c1,0.74,4.47,1.78,10.4,3.13c5.93,1.35,10.07,3,12.42,4.95
		c2.32,1.98,3.49,4.74,3.49,8.28c0,3.86-1.61,7.17-4.83,9.94s-7.99,4.16-14.3,4.16c-5.73,0-10.27-1.16-13.61-3.49
		S643.54,788.44,642.51,784.45z"/>
	<path d="M691.56,748.68v-10.3h11.13v10.3H691.56z M691.56,796.46v-42.07h11.13v42.07H691.56z"/>
	<path d="M734.35,767.77c0-5.92,0.88-10.88,2.65-14.9c1.32-2.96,3.12-5.61,5.41-7.96c2.28-2.35,4.79-4.09,7.51-5.23
		c3.62-1.53,7.79-2.3,12.52-2.3c8.56,0,15.4,2.65,20.54,7.96c5.14,5.31,7.71,12.69,7.71,22.15c0,9.38-2.55,16.71-7.65,22.01
		c-5.1,5.3-11.91,7.94-20.44,7.94c-8.64,0-15.5-2.63-20.6-7.9C736.89,784.27,734.35,777.02,734.35,767.77z M746.43,767.38
		c0,6.58,1.52,11.56,4.56,14.96s6.89,5.09,11.57,5.09s8.51-1.68,11.51-5.05c3-3.37,4.5-8.42,4.5-15.15c0-6.66-1.46-11.62-4.38-14.9
		c-2.92-3.27-6.79-4.91-11.63-4.91s-8.73,1.66-11.69,4.97C747.91,755.7,746.43,760.69,746.43,767.38z"/>
	<path d="M838.02,796.46h-11.13v-21.47c0-4.54-0.24-7.48-0.71-8.81s-1.25-2.37-2.32-3.11c-1.07-0.74-2.36-1.11-3.86-1.11
		c-1.93,0-3.66,0.53-5.19,1.58c-1.53,1.06-2.58,2.46-3.15,4.2c-0.57,1.74-0.85,4.97-0.85,9.67v19.06h-11.13v-42.07h10.34v6.18
		c3.67-4.75,8.29-7.13,13.87-7.13c2.46,0,4.7,0.44,6.74,1.33c2.03,0.89,3.57,2.01,4.62,3.39c1.04,1.37,1.77,2.93,2.18,4.67
		s0.61,4.24,0.61,7.49V796.46z"/>
	<path d="M849.31,796.46v-58.08h11.13v58.08H849.31z"/>
	<path d="M871.86,748.68v-10.3h11.13v10.3H871.86z M871.86,796.46v-42.07h11.13v42.07H871.86z"/>
	<path d="M932.67,796.46h-11.13v-21.47c0-4.54-0.24-7.48-0.71-8.81s-1.25-2.37-2.32-3.11c-1.07-0.74-2.36-1.11-3.86-1.11
		c-1.93,0-3.66,0.53-5.19,1.58c-1.53,1.06-2.58,2.46-3.15,4.2c-0.57,1.74-0.85,4.97-0.85,9.67v19.06h-11.13v-42.07h10.34v6.18
		c3.67-4.75,8.29-7.13,13.87-7.13c2.46,0,4.7,0.44,6.74,1.33c2.03,0.89,3.57,2.01,4.62,3.39c1.04,1.37,1.77,2.93,2.18,4.67
		s0.61,4.24,0.61,7.49V796.46z"/>
	<path d="M968.33,783.06l11.09,1.86c-1.43,4.07-3.68,7.16-6.75,9.29c-3.08,2.13-6.93,3.19-11.55,3.19c-7.32,0-12.73-2.39-16.24-7.17
		c-2.77-3.83-4.16-8.66-4.16-14.5c0-6.97,1.82-12.43,5.47-16.38c3.65-3.95,8.25-5.92,13.83-5.92c6.26,0,11.2,2.07,14.82,6.2
		c3.62,4.13,5.35,10.47,5.19,19h-27.89c0.08,3.3,0.98,5.87,2.69,7.71s3.86,2.75,6.42,2.75c1.74,0,3.21-0.47,4.4-1.43
		S967.72,785.18,968.33,783.06z M968.96,771.81c-0.08-3.22-0.91-5.67-2.5-7.35c-1.58-1.68-3.51-2.52-5.78-2.52
		c-2.43,0-4.44,0.89-6.02,2.65c-1.58,1.77-2.36,4.17-2.34,7.21H968.96z"/>
</g>
</svg>
